{
  "version": "1.1.6",
  "modules": [
    {
      "id": 1,
      "plugin": "Core",
      "version": "1.1.6",
      "model": "AudioInterface",
      "params": [],
      "leftModuleId": 67,
      "rightModuleId": 8,
      "data": {
        "audio": {
          "driver": 5,
          "offset": 0,
          "maxChannels": 8,
          "sampleRate": 44100,
          "blockSize": 256
        }
      },
      "pos": [
        5,
        0
      ]
    },
    {
      "id": 8,
      "plugin": "Core",
      "version": "1.1.6",
      "model": "Notes",
      "params": [],
      "leftModuleId": 1,
      "text": "1. Choose an audio driver and device in the Audio-8 module\n\n2. Press big button on the Looper module to start recording\n\n3. Press big button again to stop recording and hear your loop play\n\n4. Press big button again to overdub\n\n5. To make a new loop press \"Erase\" and start over\n\nTip: Use the \"After first loop\" menu option to overdub instead of play immediately after recording.\n",
      "pos": [
        15,
        0
      ]
    },
    {
      "id": 67,
      "plugin": "LilacLoop",
      "version": "1.0.0",
      "model": "Looper",
      "params": [
        {
          "id": 0,
          "value": 0.0
        },
        {
          "id": 1,
          "value": 0.0
        },
        {
          "id": 2,
          "value": 0.0
        },
        {
          "id": 3,
          "value": 0.0
        }
      ],
      "rightModuleId": 1,
      "pos": [
        0,
        0
      ]
    }
  ],
  "cables": [
    {
      "id": 398,
      "outputModuleId": 1,
      "outputId": 1,
      "inputModuleId": 67,
      "inputId": 4,
      "color": "#c91847"
    },
    {
      "id": 401,
      "outputModuleId": 67,
      "outputId": 0,
      "inputModuleId": 1,
      "inputId": 0,
      "color": "#c9b70e"
    },
    {
      "id": 402,
      "outputModuleId": 67,
      "outputId": 1,
      "inputModuleId": 1,
      "inputId": 1,
      "color": "#c91847"
    },
    {
      "id": 403,
      "outputModuleId": 1,
      "outputId": 0,
      "inputModuleId": 67,
      "inputId": 3,
      "color": "#c9b70e"
    }
  ]
}