{
  "version": "1.1.6",
  "modules": [
    {
      "id": 1,
      "plugin": "Core",
      "version": "1.1.6",
      "model": "AudioInterface",
      "params": [],
      "leftModuleId": 68,
      "rightModuleId": 8,
      "data": {
        "audio": {
          "driver": 5,
          "offset": 0,
          "maxChannels": 8,
          "sampleRate": 44100,
          "blockSize": 256
        }
      },
      "pos": [
        16,
        0
      ]
    },
    {
      "id": 8,
      "plugin": "Core",
      "version": "1.1.6",
      "model": "Notes",
      "params": [],
      "leftModuleId": 1,
      "text": "Here's an example showing how to record a mono input signal with Lilac Looper.\n\nThe mixer is necessary to combine the live device input with Looper's output.",
      "pos": [
        26,
        0
      ]
    },
    {
      "id": 67,
      "plugin": "LilacLoop",
      "version": "1.0.0",
      "model": "Looper",
      "params": [
        {
          "id": 0,
          "value": 0.0
        },
        {
          "id": 1,
          "value": 1.0
        },
        {
          "id": 2,
          "value": 0.0
        },
        {
          "id": 3,
          "value": 0.0
        }
      ],
      "rightModuleId": 68,
      "pos": [
        0,
        0
      ]
    },
    {
      "id": 68,
      "plugin": "Fundamental",
      "version": "1.4.0",
      "model": "VCMixer",
      "params": [
        {
          "id": 0,
          "value": 1.0
        },
        {
          "id": 1,
          "value": 1.0
        },
        {
          "id": 2,
          "value": 1.0
        },
        {
          "id": 3,
          "value": 1.0
        },
        {
          "id": 4,
          "value": 1.0
        }
      ],
      "leftModuleId": 67,
      "rightModuleId": 1,
      "pos": [
        6,
        0
      ]
    }
  ],
  "cables": [
    {
      "id": 288,
      "outputModuleId": 1,
      "outputId": 0,
      "inputModuleId": 67,
      "inputId": 3,
      "color": "#0c8e15"
    },
    {
      "id": 289,
      "outputModuleId": 1,
      "outputId": 0,
      "inputModuleId": 68,
      "inputId": 1,
      "color": "#c91847"
    },
    {
      "id": 290,
      "outputModuleId": 67,
      "outputId": 0,
      "inputModuleId": 68,
      "inputId": 2,
      "color": "#0986ad"
    },
    {
      "id": 291,
      "outputModuleId": 68,
      "outputId": 0,
      "inputModuleId": 1,
      "inputId": 0,
      "color": "#c9b70e"
    },
    {
      "id": 292,
      "outputModuleId": 68,
      "outputId": 0,
      "inputModuleId": 1,
      "inputId": 1,
      "color": "#0c8e15"
    }
  ]
}